<svg width="12" height="12" viewBox="0 0 12 12" fill="none" xmlns="http://www.w3.org/2000/svg">
<mask id="mask0_128_167" style="mask-type:alpha" maskUnits="userSpaceOnUse" x="1" y="0" width="10" height="12">
<path d="M8.38644 0.00594422C8.36094 -0.0225558 7.44219 0.0171943 6.64269 0.884944C5.84319 1.75194 5.96619 2.74644 5.98419 2.77194C6.00219 2.79744 7.12419 2.83719 7.84044 1.82844C8.55669 0.819694 8.41194 0.0351942 8.38644 0.00594422ZM10.8719 8.80569C10.8359 8.73369 9.12819 7.88019 9.28719 6.23919C9.44619 4.59744 10.5434 4.14744 10.5607 4.09869C10.5779 4.04994 10.1129 3.50619 9.62019 3.23094C9.25841 3.03688 8.85799 2.9257 8.44794 2.90544C8.36694 2.90319 8.08569 2.83419 7.50744 2.99244C7.12644 3.09669 6.26769 3.43419 6.03144 3.44769C5.79444 3.46119 5.08944 3.05619 4.33119 2.94894C3.84594 2.85519 3.33144 3.04719 2.96319 3.19494C2.59569 3.34194 1.89669 3.76044 1.40769 4.87269C0.918694 5.98419 1.17444 7.74519 1.35744 8.29269C1.54044 8.83944 1.82619 9.73569 2.31219 10.3897C2.74419 11.1277 3.31719 11.6399 3.55644 11.8139C3.79569 11.9879 4.47069 12.1034 4.93869 11.8642C5.31519 11.6332 5.99469 11.5004 6.26319 11.5102C6.53094 11.5199 7.05894 11.6257 7.59969 11.9144C8.02794 12.0622 8.43294 12.0007 8.83869 11.8357C9.24444 11.6699 9.83169 11.0414 10.5172 9.76719C10.7774 9.17469 10.8959 8.85444 10.8719 8.80569Z" fill="white"/>
<path d="M8.38644 0.00594422C8.36094 -0.0225558 7.44219 0.0171943 6.64269 0.884944C5.84319 1.75194 5.96619 2.74644 5.98419 2.77194C6.00219 2.79744 7.12419 2.83719 7.84044 1.82844C8.55669 0.819694 8.41194 0.0351942 8.38644 0.00594422ZM10.8719 8.80569C10.8359 8.73369 9.12819 7.88019 9.28719 6.23919C9.44619 4.59744 10.5434 4.14744 10.5607 4.09869C10.5779 4.04994 10.1129 3.50619 9.62019 3.23094C9.25841 3.03688 8.85799 2.9257 8.44794 2.90544C8.36694 2.90319 8.08569 2.83419 7.50744 2.99244C7.12644 3.09669 6.26769 3.43419 6.03144 3.44769C5.79444 3.46119 5.08944 3.05619 4.33119 2.94894C3.84594 2.85519 3.33144 3.04719 2.96319 3.19494C2.59569 3.34194 1.89669 3.76044 1.40769 4.87269C0.918694 5.98419 1.17444 7.74519 1.35744 8.29269C1.54044 8.83944 1.82619 9.73569 2.31219 10.3897C2.74419 11.1277 3.31719 11.6399 3.55644 11.8139C3.79569 11.9879 4.47069 12.1034 4.93869 11.8642C5.31519 11.6332 5.99469 11.5004 6.26319 11.5102C6.53094 11.5199 7.05894 11.6257 7.59969 11.9144C8.02794 12.0622 8.43294 12.0007 8.83869 11.8357C9.24444 11.6699 9.83169 11.0414 10.5172 9.76719C10.7774 9.17469 10.8959 8.85444 10.8719 8.80569Z" fill="white"/>
</mask>
<g mask="url(#mask0_128_167)">
<rect x="0.000976562" width="12" height="12" fill="white"/>
</g>
</svg>
