<svg width="40" height="40" viewBox="0 0 40 40" fill="none" xmlns="http://www.w3.org/2000/svg">
<rect width="40" height="40" rx="20" fill="#1F2024"/>
<mask id="mask0_1_472" style="mask-type:alpha" maskUnits="userSpaceOnUse" x="15" y="14" width="10" height="12">
<path d="M22.3864 14.0059C22.3609 13.9774 21.4422 14.0172 20.6427 14.8849C19.8432 15.7519 19.9662 16.7464 19.9842 16.7719C20.0022 16.7974 21.1242 16.8372 21.8404 15.8284C22.5567 14.8197 22.4119 14.0352 22.3864 14.0059ZM24.8719 22.8057C24.8359 22.7337 23.1282 21.8802 23.2872 20.2392C23.4462 18.5974 24.5434 18.1474 24.5607 18.0987C24.5779 18.0499 24.1129 17.5062 23.6202 17.2309C23.2584 17.0369 22.858 16.9257 22.4479 16.9054C22.3669 16.9032 22.0857 16.8342 21.5074 16.9924C21.1264 17.0967 20.2677 17.4342 20.0314 17.4477C19.7944 17.4612 19.0894 17.0562 18.3312 16.9489C17.8459 16.8552 17.3314 17.0472 16.9632 17.1949C16.5957 17.3419 15.8967 17.7604 15.4077 18.8727C14.9187 19.9842 15.1744 21.7452 15.3574 22.2927C15.5404 22.8394 15.8262 23.7357 16.3122 24.3897C16.7442 25.1277 17.3172 25.6399 17.5564 25.8139C17.7957 25.9879 18.4707 26.1034 18.9387 25.8642C19.3152 25.6332 19.9947 25.5004 20.2632 25.5102C20.5309 25.5199 21.0589 25.6257 21.5997 25.9144C22.0279 26.0622 22.4329 26.0007 22.8387 25.8357C23.2444 25.6699 23.8317 25.0414 24.5172 23.7672C24.7774 23.1747 24.8959 22.8544 24.8719 22.8057Z" fill="white"/>
<path d="M22.3864 14.0059C22.3609 13.9774 21.4422 14.0172 20.6427 14.8849C19.8432 15.7519 19.9662 16.7464 19.9842 16.7719C20.0022 16.7974 21.1242 16.8372 21.8404 15.8284C22.5567 14.8197 22.4119 14.0352 22.3864 14.0059ZM24.8719 22.8057C24.8359 22.7337 23.1282 21.8802 23.2872 20.2392C23.4462 18.5974 24.5434 18.1474 24.5607 18.0987C24.5779 18.0499 24.1129 17.5062 23.6202 17.2309C23.2584 17.0369 22.858 16.9257 22.4479 16.9054C22.3669 16.9032 22.0857 16.8342 21.5074 16.9924C21.1264 17.0967 20.2677 17.4342 20.0314 17.4477C19.7944 17.4612 19.0894 17.0562 18.3312 16.9489C17.8459 16.8552 17.3314 17.0472 16.9632 17.1949C16.5957 17.3419 15.8967 17.7604 15.4077 18.8727C14.9187 19.9842 15.1744 21.7452 15.3574 22.2927C15.5404 22.8394 15.8262 23.7357 16.3122 24.3897C16.7442 25.1277 17.3172 25.6399 17.5564 25.8139C17.7957 25.9879 18.4707 26.1034 18.9387 25.8642C19.3152 25.6332 19.9947 25.5004 20.2632 25.5102C20.5309 25.5199 21.0589 25.6257 21.5997 25.9144C22.0279 26.0622 22.4329 26.0007 22.8387 25.8357C23.2444 25.6699 23.8317 25.0414 24.5172 23.7672C24.7774 23.1747 24.8959 22.8544 24.8719 22.8057Z" fill="white"/>
</mask>
<g mask="url(#mask0_1_472)">
<rect x="14.001" y="14" width="12" height="12" fill="white"/>
</g>
</svg>
