<svg width="28" height="28" viewBox="0 0 28 28" fill="none" xmlns="http://www.w3.org/2000/svg">
<g clip-path="url(#clip0_172_5085)">
<path d="M9.75414 0.920842C6.95651 1.89137 4.54383 3.73346 2.8705 6.17653C1.19716 8.61961 0.351373 11.5349 0.45736 14.4942C0.563346 17.4535 1.61552 20.3008 3.45934 22.6179C5.30316 24.935 7.84143 26.5998 10.7013 27.3677C13.0199 27.966 15.4491 27.9923 17.7801 27.4443C19.8917 26.97 21.844 25.9554 23.4457 24.4999C25.1128 22.9388 26.3228 20.9528 26.9457 18.7555C27.6228 16.3661 27.7433 13.8532 27.2979 11.4099H14.2779V16.8108H21.8182C21.6675 17.6723 21.3446 18.4944 20.8687 19.2281C20.3929 19.9618 19.7739 20.5919 19.0488 21.0808C18.1281 21.6899 17.0901 22.0997 16.0016 22.284C14.91 22.487 13.7902 22.487 12.6985 22.284C11.5921 22.0552 10.5454 21.5985 9.62508 20.943C8.14665 19.8965 7.03656 18.4097 6.4532 16.6949C5.85999 14.948 5.85999 13.054 6.4532 11.3071C6.86845 10.0826 7.5549 8.96764 8.46133 8.04553C9.49862 6.97091 10.8119 6.20277 12.257 5.82538C13.7021 5.44799 15.2232 5.47594 16.6535 5.90615C17.7708 6.24914 18.7926 6.84839 19.6373 7.65615C20.4875 6.81032 21.3362 5.9623 22.1835 5.11209C22.621 4.6549 23.0979 4.21959 23.5288 3.75147C22.2394 2.55157 20.7259 1.6179 19.0751 1.00397C16.0688 -0.0876179 12.7794 -0.116953 9.75414 0.920842Z" fill="white"/>
<path d="M9.75407 0.920928C12.7791 -0.117572 16.0685 -0.0890089 19.075 1.00187C20.7262 1.61997 22.239 2.55814 23.5266 3.76249C23.0891 4.23062 22.6275 4.66812 22.1813 5.12312C21.3325 5.97041 20.4845 6.81478 19.6372 7.65624C18.7925 6.84848 17.7708 6.24922 16.6534 5.90624C15.2236 5.47452 13.7025 5.44496 12.2571 5.8208C10.8116 6.19665 9.4975 6.96338 8.45907 8.03687C7.55264 8.95897 6.86619 10.0739 6.45095 11.2984L1.91626 7.78749C3.5394 4.56872 6.34977 2.10661 9.75407 0.920928Z" fill="#E33629"/>
<path d="M0.713138 11.2657C0.956872 10.0578 1.36152 8.88797 1.91626 7.7876L6.45095 11.3073C5.85773 13.0542 5.85773 14.9481 6.45095 16.6951C4.94012 17.8618 3.42856 19.0343 1.91626 20.2126C0.52753 17.4483 0.103991 14.2987 0.713138 11.2657Z" fill="#F8BD00"/>
<path d="M14.2778 11.4077H27.2978C27.7432 13.851 27.6227 16.3639 26.9456 18.7533C26.3227 20.9506 25.1127 22.9366 23.4456 24.4977C21.9822 23.3558 20.5122 22.2227 19.0488 21.0808C19.7743 20.5915 20.3936 19.9606 20.8694 19.2261C21.3453 18.4917 21.668 17.6687 21.8181 16.8065H14.2778C14.2756 15.0083 14.2778 13.208 14.2778 11.4077Z" fill="#587DBD"/>
<path d="M1.91406 20.2126C3.42635 19.0459 4.93792 17.8734 6.44875 16.6951C7.03327 18.4105 8.14495 19.8973 9.625 20.9432C10.5481 21.5956 11.5971 22.0486 12.705 22.2732C13.7967 22.4762 14.9164 22.4762 16.0081 22.2732C17.0966 22.0889 18.1346 21.6791 19.0553 21.0701C20.5188 22.2119 21.9888 23.3451 23.4522 24.4869C21.8507 25.9432 19.8984 26.9586 17.7866 27.4335C15.4556 27.9815 13.0264 27.9552 10.7078 27.3569C8.87404 26.8673 7.16117 26.0042 5.67656 24.8216C4.1052 23.5741 2.82178 22.0019 1.91406 20.2126Z" fill="#319F43"/>
</g>
<defs>
<clipPath id="clip0_172_5085">
<rect width="28" height="28" fill="white"/>
</clipPath>
</defs>
</svg>
