<svg width="85" height="28" viewBox="0 0 85 28" fill="none" xmlns="http://www.w3.org/2000/svg">
<path d="M68.5876 0.0419922L84.1633 0.0429717L84.159 7.87947L77.4563 7.87647L77.0765 9.11348C79.4398 9.83398 81.4576 10.7349 82.9877 12.7455C84.5541 14.8325 85.2236 17.4573 84.8481 20.0393C84.5002 22.5906 83.2162 24.4503 81.2046 25.9891C80.7654 26.307 80.3017 26.5906 79.8177 26.8356C77.7087 27.8996 75.8202 28.0136 73.5261 27.9989C71.5641 27.986 70.5142 27.983 68.6158 27.3575L68.6134 20.4209C70.3763 21.1143 71.6958 20.9428 73.528 20.7982C76.7886 20.5232 77.9427 17.0432 75.1617 15.0659C73.3871 13.804 70.6471 13.619 68.554 13.9755L68.5876 0.0419922Z" fill="black"/>
<path d="M24.3302 7.0793C29.7734 6.75097 34.4564 10.8882 34.8015 16.3301C35.1467 21.7728 31.024 26.468 25.5829 26.8301C20.1179 27.1939 15.3971 23.0493 15.0505 17.5828C14.7038 12.117 18.8631 7.40904 24.3302 7.0793Z" fill="#EDF5F4"/>
<path d="M24.6385 14.2052C26.15 14.0496 27.5051 15.1394 27.6769 16.6493C27.8487 18.1593 26.7729 19.5259 25.2651 19.7134C24.2755 19.8365 23.296 19.4187 22.7001 18.6187C22.1042 17.8193 21.9839 16.7608 22.3849 15.8481C22.7859 14.9348 23.6465 14.3075 24.6385 14.2052Z" fill="#0F9687"/>
<path d="M45.1272 7.07878C50.587 6.75198 55.2762 10.9165 55.5965 16.3767C55.9175 21.8364 51.7472 26.5213 46.2868 26.8356C40.8354 27.1492 36.1601 22.9874 35.8401 17.5363C35.5201 12.0851 39.6763 7.40503 45.1272 7.07878Z" fill="#EDF5F4"/>
<path d="M45.439 14.2045C46.9661 14.0513 48.3266 15.1686 48.4743 16.6964C48.6213 18.2241 47.4997 19.5803 45.9713 19.7224C44.451 19.8639 43.1021 18.7491 42.9557 17.2287C42.8087 15.7089 43.9193 14.3564 45.439 14.2045Z" fill="#0F9687"/>
<path d="M57.4025 0.00545166C59.7498 -0.00379802 62.0965 -0.00128509 64.4439 0.0130489V8.26242L67.6188 8.26904L67.6169 13.9779L64.4451 13.9859C64.442 15.102 64.5394 16.1421 64.6785 17.2466C64.9002 19.0034 65.9789 20.1501 67.7486 20.389L67.7456 24.2046L67.7462 27.3165C64.782 27.4567 61.7345 26.103 59.732 23.918C57.2371 21.1957 57.3798 17.6178 57.3829 14.1782L57.3847 9.00441L57.3823 3.23237C57.381 2.25074 57.3412 0.946469 57.4025 0.00545166Z" fill="#EDF5F4"/>
<path d="M7.97169 7.41827C9.77342 7.38679 11.848 7.49809 13.6413 7.59959L13.6389 14.7589C12.5915 14.558 9.54512 14.6707 8.48141 14.8416C6.7247 15.1228 7.08648 18.7553 7.08716 20.1929L7.08618 26.6304L5.7922 26.6291L0.0267077 26.6297L0.0241354 19.6226C0.0236454 17.6857 -0.123309 15.5136 0.313876 13.6385C1.23731 9.67709 4.03629 7.60474 7.97169 7.41827Z" fill="#EDF5F4"/>
</svg>
