<svg width="375" height="312" viewBox="0 0 375 312" fill="none" xmlns="http://www.w3.org/2000/svg">
<rect width="375" height="312" fill="#EAF2FF"/>
<mask id="mask0_1_474" style="mask-type:alpha" maskUnits="userSpaceOnUse" x="171" y="142" width="33" height="28">
<path d="M182.963 151.622C182.963 153.463 181.53 154.955 179.763 154.955C177.995 154.955 176.563 153.463 176.563 151.622C176.563 149.781 177.995 148.288 179.763 148.288C181.53 148.288 182.963 149.781 182.963 151.622Z" fill="#B4DBFF"/>
<path fill-rule="evenodd" clip-rule="evenodd" d="M171.501 146C171.501 144.16 172.933 142.667 174.701 142.667H200.3C202.067 142.667 203.499 144.16 203.499 146V166C203.499 167.84 202.067 169.333 200.3 169.333H198.187C198.18 169.333 198.173 169.333 198.166 169.333H175.43C175.424 169.333 175.418 169.333 175.412 169.333H174.701C172.933 169.333 171.501 167.84 171.501 166V146ZM174.701 145.167H200.3C200.741 145.167 201.1 145.54 201.1 146V156.387L194.147 149.334L182.32 161.333L178.836 157.798L173.901 162.805V146C173.901 145.54 174.259 145.167 174.701 145.167Z" fill="#B4DBFF"/>
</mask>
<g mask="url(#mask0_1_474)">
<rect x="171.5" y="140" width="31.9987" height="31.9987" fill="#B4DBFF"/>
</g>
</svg>
