<svg width="245" height="155" viewBox="0 0 245 155" fill="none" xmlns="http://www.w3.org/2000/svg">
<path d="M203.764 76.3508C225.233 75.0657 243.672 91.4415 244.932 112.912C246.194 134.381 229.795 152.803 208.324 154.039C186.888 155.272 168.503 138.907 167.245 117.472C165.986 96.0366 182.33 77.6337 203.764 76.3508Z" fill="#EDF5F4"/>
<path d="M204.856 104.198C210.861 103.596 216.211 107.989 216.791 113.997C217.369 120.004 212.959 125.337 206.949 125.896C200.971 126.452 195.667 122.068 195.091 116.09C194.513 110.114 198.88 104.795 204.856 104.198Z" fill="black"/>
<path d="M129.475 0.165039L190.722 0.168891L190.705 30.9838L164.349 30.972L162.855 35.8362C172.148 38.6694 180.083 42.2121 186.1 50.1181C192.259 58.3246 194.892 68.646 193.415 78.7989C192.047 88.8312 186.998 96.1441 179.088 102.195C177.361 103.445 175.537 104.56 173.635 105.524C165.341 109.708 157.915 110.156 148.894 110.098C141.179 110.047 137.051 110.035 129.586 107.576L129.576 80.2995C136.509 83.0262 141.697 82.3517 148.902 81.7833C161.723 80.7018 166.261 67.0177 155.326 59.2424C148.348 54.2804 137.573 53.5529 129.343 54.9548L129.475 0.165039Z" fill="#0F9687"/>
<path d="M36.5695 76.1558C57.9735 74.8647 76.3878 91.1333 77.7451 112.532C79.1024 133.934 62.891 152.397 41.4954 153.82C20.0059 155.251 1.44251 138.954 0.0794059 117.458C-1.28394 95.9652 15.0716 77.4524 36.5695 76.1558Z" fill="#EDF5F4"/>
<path d="M85.4919 0.0214372C94.7221 -0.0149347 103.95 -0.00505325 113.18 0.0513111V32.4897L125.665 32.5157L125.657 54.9644L113.185 54.9957C113.173 59.3844 113.556 63.4745 114.103 67.8174C114.975 74.7256 119.217 79.2348 126.175 80.1742L126.163 95.1782L126.166 107.415C114.51 107.966 102.526 102.643 94.6523 94.0509C84.8415 83.3465 85.4027 69.2771 85.4148 55.752L85.422 35.4074L85.4123 12.7104C85.4075 8.85041 85.251 3.72173 85.4919 0.0214372Z" fill="#EDF5F4"/>
<path d="M37.6448 104.201C43.5881 103.589 48.917 107.874 49.5924 113.812C50.2678 119.749 46.0378 125.123 40.1085 125.86C36.2172 126.344 32.3656 124.702 30.0224 121.556C27.6794 118.413 27.2061 114.25 28.7829 110.661C30.3599 107.07 33.7439 104.603 37.6448 104.201Z" fill="black"/>
<path d="M55.555 32.2557C62.6398 32.1319 70.7975 32.5696 77.8493 32.9687L77.8399 61.1208C73.7212 60.3307 61.7421 60.7739 57.5593 61.446C50.6516 62.5516 52.0742 76.8354 52.0768 82.4887L52.073 107.802L46.9848 107.797L24.3135 107.8L24.3034 80.2461C24.3015 72.6297 23.7236 64.0883 25.4427 56.7152C29.0739 41.1379 40.0801 32.989 55.555 32.2557Z" fill="#0F9687"/>
</svg>
