<svg width="245" height="83" viewBox="0 0 245 83" fill="none" xmlns="http://www.w3.org/2000/svg">
<path d="M130.61 23.3016C146.651 22.3415 160.427 34.5767 161.368 50.6187C162.312 66.6594 150.059 80.4235 134.017 81.3467C118 82.2682 104.264 70.0411 103.324 54.0255C102.384 38.01 114.595 24.2602 130.61 23.3016Z" fill="#EDF5F4"/>
<path d="M131.426 44.1077C135.912 43.6577 139.909 46.9404 140.343 51.4288C140.775 55.9173 137.48 59.9018 132.99 60.3193C128.523 60.7351 124.56 57.4596 124.13 52.9928C123.698 48.5277 126.961 44.554 131.426 44.1077Z" fill="black"/>
<path d="M196.927 0.123291L242.688 0.126169L242.675 23.1497L222.983 23.1409L221.867 26.7752C228.811 28.892 234.739 31.539 239.234 37.446C243.836 43.5775 245.803 51.2892 244.7 58.875C243.678 66.3707 239.906 71.8346 233.995 76.3554C232.705 77.2895 231.343 78.1227 229.921 78.8426C223.725 81.9687 218.176 82.3034 211.436 82.2602C205.672 82.2224 202.587 82.2134 197.01 80.3759L197.003 59.9962C202.182 62.0334 206.059 61.5295 211.442 61.1048C221.021 60.2967 224.412 50.0727 216.241 44.2632C211.028 40.5559 202.978 40.0123 196.828 41.0598L196.927 0.123291Z" fill="#0F9687"/>
<path d="M69.9052 23.3024C85.8973 22.3378 99.6556 34.493 100.67 50.4813C101.684 66.4716 89.5714 80.2663 73.5855 81.3299C57.5295 82.3989 43.6598 70.2222 42.6414 54.1617C41.6227 38.1032 53.8429 24.2712 69.9052 23.3024Z" fill="#EDF5F4"/>
<path d="M164.065 0.0160169C170.961 -0.0111585 177.856 -0.00377557 184.752 0.0383374V24.2749L194.08 24.2943L194.075 41.067L184.756 41.0903C184.747 44.3694 185.033 47.4253 185.442 50.6701C186.093 55.8317 189.262 59.2007 194.462 59.9026L194.453 71.1129L194.455 80.2554C185.746 80.6675 176.792 76.6902 170.909 70.2706C163.579 62.2728 163.998 51.7607 164.007 41.6554L164.013 26.4548L164.006 9.49665C164.002 6.61263 163.885 2.78071 164.065 0.0160169Z" fill="#EDF5F4"/>
<path d="M70.7086 44.2566C75.1492 43.7995 79.1306 47.0011 79.6353 51.4374C80.1399 55.8736 76.9795 59.8888 72.5493 60.4395C69.6419 60.8012 66.7642 59.5738 65.0135 57.2234C63.2629 54.8748 62.9093 51.7649 64.0873 49.0834C65.2656 46.4 67.794 44.5571 70.7086 44.2566Z" fill="black"/>
<path d="M23.4207 23.9989C28.7142 23.9064 34.8092 24.2334 40.078 24.5316L40.071 45.5656C36.9937 44.9753 28.0434 45.3064 24.9183 45.8085C19.7571 46.6346 20.82 57.3068 20.822 61.5307L20.8191 80.4437L17.0174 80.4401L0.0784668 80.4419L0.0709095 59.8551C0.0694697 54.1645 -0.362281 47.7828 0.922163 42.2739C3.63521 30.6353 11.8586 24.5467 23.4207 23.9989Z" fill="#0F9687"/>
</svg>
